<?xml version="1.0" encoding="UTF-8"?>
<svg width="40.899mm" height="49.338mm" version="1.1" viewBox="0 0 144.91909 174.81965" xmlns="http://www.w3.org/2000/svg" xmlns:xlink="http://www.w3.org/1999/xlink">
 <defs>
  <linearGradient id="p" x1="17.868" x2="32.797" y1="87.169" y2="43.208" gradientUnits="userSpaceOnUse" xlink:href="#m"/>
  <linearGradient id="m">
   <stop stop-color="#6d7877" offset="0"/>
   <stop stop-color="#b8bfbe" offset="1"/>
  </linearGradient>
  <linearGradient id="q" x1="13.048" x2="43.165" y1="57.089" y2="42.839" gradientUnits="userSpaceOnUse">
   <stop stop-color="#6d7877" offset="0"/>
   <stop stop-color="#fff" offset=".50028"/>
   <stop stop-color="#b8bfbe" offset="1"/>
  </linearGradient>
  <linearGradient id="t" x1=".29774" x2="25.415" y1="58.089" y2="34.214" gradientUnits="userSpaceOnUse">
   <stop stop-color="#323736" offset="0"/>
   <stop stop-color="#e5e8e8" offset="1"/>
  </linearGradient>
  <linearGradient id="a" x1="-87.326" x2="-31.676" y1="222.83" y2="191.37" gradientTransform="translate(120.92 -101.12)" gradientUnits="userSpaceOnUse" xlink:href="#l"/>
  <linearGradient id="l">
   <stop stop-color="#464646" offset="0"/>
   <stop stop-color="#f9f9f9" offset=".50646"/>
   <stop stop-color="#464646" offset="1"/>
  </linearGradient>
  <linearGradient id="u" x1="75.298" x2="91.954" y1="170.21" y2="137.8" gradientUnits="userSpaceOnUse">
   <stop stop-color="#4e4e4e" offset="0"/>
   <stop stop-color="#ccc" offset="1"/>
  </linearGradient>
  <linearGradient id="o" x1="94.955" x2="107.79" y1="187.7" y2="156.35" gradientUnits="userSpaceOnUse" xlink:href="#m"/>
  <linearGradient id="s" x1="15.852" x2="43.372" y1="64.1" y2="43.6" gradientUnits="userSpaceOnUse">
   <stop stop-color="#323736" offset="0"/>
   <stop stop-color="#b8bfbe" offset="1"/>
  </linearGradient>
  <linearGradient id="n" x1="-87.326" x2="-31.676" y1="222.83" y2="191.37" gradientUnits="userSpaceOnUse" xlink:href="#l"/>
  <linearGradient id="r" x1="-77.032" x2="-2.1542" y1="245.73" y2="204.98" gradientUnits="userSpaceOnUse">
   <stop stop-color="#1f1f1f" offset="0"/>
   <stop stop-color="#e7e7e7" stop-opacity=".38431" offset=".61234"/>
   <stop stop-color="#ccc" stop-opacity="0" offset="1"/>
  </linearGradient>
 </defs>
 <g transform="translate(-250.4 -482.1)">
  <g transform="translate(269.9 476.21)" fill-rule="evenodd">
   <path d="m-13.585 78.572-4.0929-8.6906c-2.8984-16.382-1.9943-27.924 0.26517-37.742 10.876-12.53 23.747-20.785 37.919-26.251 12.249 2.8588 23.452 8.5055 34.295 15.114l6.6145 8.0693z" fill="#a2b2c1"/>
   <path d="m20.506 5.8887c-0.35807 0.13812-0.71196 0.28603-1.0684 0.42773l5.3447 8.9746 1.5616-1.4786-4.4336-7.5742c-0.46743-0.11793-0.93382-0.2398-1.4043-0.34961z" fill="#fff"/>
   <path d="m-16.428 31.043c-0.32787 0.36612-0.66003 0.72397-0.98438 1.0977-0.15871 0.68958-0.29301 1.4095-0.4375 2.1172l5.6621 7.1797 1.625-2.5-5.8652-7.8945z" fill="#808080"/>
   <path d="m21.665 92.822c-11.75-3.1657-23.5-6.5124-35.25-14.25 1.6088-12.706 2.4517-25.719 0.75-39.75 15.329-4.5063 26.247-16.071 38.5-25.5 11.619 7.0354 23.466 12.705 35.75 15.75l1.4532 21.977z" fill="#c5cbc9"/>
   <path d="m33.535 17.83 1.8691 7.7891 2.4219-1.2441-1.207-4.9238c-1.0299-0.52978-2.0584-1.0653-3.084-1.6211zm20.482 9.0801-2.9902 4.959 2.5977 0.8125 2.9531-4.9492c-0.85602-0.26126-1.7085-0.53712-2.5605-0.82227z" fill="#fff"/>
   <ellipse transform="matrix(.9883 -.15249 0 1 0 0)" cx="27.146" cy="60.75" rx="36.466" ry="33.829" color="#000000" color-rendering="auto" fill="url(#p)" image-rendering="auto" shape-rendering="auto" solid-color="#000000" style="isolation:auto;mix-blend-mode:normal"/>
   <path d="m52.397 53.815a23.843 28.122 41.25 0 1 -25.79 30.272 23.843 28.122 41.25 0 1 -25.79 -21.724 23.843 28.122 41.25 0 1 25.79 -30.272 23.843 28.122 41.25 0 1 25.79 21.724z" color="#000000" color-rendering="auto" fill="url(#q)" image-rendering="auto" shape-rendering="auto" solid-color="#000000" stroke="url(#t)" stroke-width="1.0367" style="isolation:auto;mix-blend-mode:normal"/>
   <path d="m99.89 125.25a24.406 29.637 61.363 0 0 -5.6662 0.32286 24.406 29.637 61.363 0 0 -28.52 29.529 24.406 29.637 61.363 0 0 4.044 12.373 24.406 29.637 61.363 0 1 -1.9116 -8.8384 24.406 29.637 61.363 0 1 28.52 -29.529 24.406 29.637 61.363 0 1 24.476 8.8193 24.406 29.637 61.363 0 0 -20.943 -12.677z" color="#000000" color-rendering="auto" fill="url(#a)" image-rendering="auto" shape-rendering="auto" solid-color="#000000" stroke="#ccc" stroke-width="1.0768" style="isolation:auto;mix-blend-mode:normal"/>
   <path d="m124.88 150.29a24.406 29.637 61.363 0 1 -28.52 29.531 24.406 29.637 61.363 0 1 -28.52 -21.193 24.406 29.637 61.363 0 1 28.52 -29.531 24.406 29.637 61.363 0 1 28.52 21.193z" color="#000000" color-rendering="auto" fill="url(#a)" image-rendering="auto" shape-rendering="auto" solid-color="#000000" stroke="url(#u)" stroke-width="1.0768" style="isolation:auto;mix-blend-mode:normal"/>
   <ellipse transform="matrix(.98936 -.14547 0 1 0 0)" cx="98.335" cy="171.76" rx="23.035" ry="20.384" color="#000000" color-rendering="auto" fill="url(#o)" image-rendering="auto" shape-rendering="auto" solid-color="#000000" style="isolation:auto;mix-blend-mode:normal"/>
   <path d="m36.072 40.642a21.818 26.012 55.774 0 0 -4.9195 0.29176 21.818 26.012 55.774 0 0 -24.762 26.685 21.818 26.012 55.774 0 0 3.5111 11.181 21.818 26.012 55.774 0 1 -1.6597 -7.9872 21.818 26.012 55.774 0 1 24.762 -26.685 21.818 26.012 55.774 0 1 21.251 7.9699 21.818 26.012 55.774 0 0 -18.183 -11.456z" color="#000000" color-rendering="auto" fill="url(#a)" image-rendering="auto" shape-rendering="auto" solid-color="#000000" stroke="url(#s)" stroke-width="1.0768" style="isolation:auto;mix-blend-mode:normal"/>
   <g transform="translate(120.92 -101.12)" fill="url(#n)" shape-rendering="auto" stroke="url(#r)" stroke-width="1.0768">
    <path d="m-23.479 223.11c-1.8556-0.0633-3.7442 0.0445-5.6375 0.32166-15.671 2.2939-28.375 15.465-28.376 29.42 0.01092 4.5478 1.401 8.8067 4.0235 12.327-1.2557-2.7144-1.9004-5.6995-1.9019-8.8057 7.86e-4 -13.955 12.705-27.126 28.376-29.42 9.9936-1.4516 19.244 1.886 24.352 8.7866-3.4834-7.5418-11.34-12.304-20.836-12.63" color="#000000" color-rendering="auto" image-rendering="auto" solid-color="#000000" style="isolation:auto;mix-blend-mode:normal"/>
    <path d="m-25.934 219.85c-1.8461-0.063-3.7251 0.0443-5.6088 0.32047-15.591 2.2854-28.231 15.408-28.231 29.311 0.01087 4.5309 1.3939 8.7739 4.003 12.281-1.2493-2.7043-1.8908-5.6783-1.8923-8.7729 7.82e-4 -13.903 12.64-27.025 28.231-29.311 9.9427-1.4462 19.146 1.879 24.228 8.754-3.4656-7.5138-11.282-12.258-20.73-12.583" color="#000000" color-rendering="auto" image-rendering="auto" solid-color="#000000" style="isolation:auto;mix-blend-mode:normal"/>
    <path d="m-28.389 216.6c-1.8367-0.0628-3.706 0.0442-5.58 0.31927-15.511 2.2768-28.086 15.35-28.087 29.201 0.01081 4.514 1.3867 8.7412 3.9825 12.235-1.2429-2.6942-1.8811-5.6571-1.8826-8.7402 7.78e-4 -13.851 12.575-26.924 28.087-29.201 9.8918-1.4408 19.048 1.872 24.104 8.7213-3.4479-7.4857-11.225-12.213-20.624-12.536" color="#000000" color-rendering="auto" image-rendering="auto" solid-color="#000000" style="isolation:auto;mix-blend-mode:normal"/>
    <path d="m-30.843 213.35c-1.8272-0.0626-3.6869 0.044-5.5513 0.31808-15.432 2.2683-27.941 15.293-27.942 29.092 0.01076 4.4971 1.3796 8.7084 3.962 12.19-1.2365-2.6841-1.8714-5.6359-1.8729-8.7075 7.74e-4 -13.799 12.511-26.824 27.942-29.092 9.8409-1.4354 18.95 1.865 23.98 8.6886-3.4302-7.4577-11.167-12.167-20.518-12.489" color="#000000" color-rendering="auto" image-rendering="auto" solid-color="#000000" style="isolation:auto;mix-blend-mode:normal"/>
    <path d="m-33.298 210.09c-1.8178-0.0623-3.6679 0.0438-5.5226 0.31687-15.352 2.2598-27.797 15.235-27.798 28.982 0.0107 4.4802 1.3725 8.6757 3.9415 12.144-1.2301-2.674-1.8617-5.6148-1.8632-8.6747 7.69e-4 -13.747 12.446-26.723 27.798-28.982 9.79-1.43 18.852 1.858 23.856 8.656-3.4124-7.4296-11.109-12.121-20.412-12.442" color="#000000" color-rendering="auto" image-rendering="auto" solid-color="#000000" style="isolation:auto;mix-blend-mode:normal"/>
    <path d="m-35.752 206.84c-1.8083-0.0621-3.6488 0.0437-5.4939 0.31568-15.272 2.2512-27.652 15.178-27.653 28.873 0.01065 4.4632 1.3653 8.643 3.921 12.098-1.2237-2.6639-1.852-5.5936-1.8535-8.642 7.65e-4 -13.695 12.381-26.622 27.653-28.873 9.7391-1.4246 18.754 1.8509 23.732 8.6233-3.3947-7.4016-11.051-12.075-20.306-12.395" color="#000000" color-rendering="auto" image-rendering="auto" solid-color="#000000" style="isolation:auto;mix-blend-mode:normal"/>
    <path d="m-38.207 203.58c-1.7989-0.0619-3.6297 0.0435-5.4652 0.31448-15.192 2.2427-27.508 15.12-27.509 28.764 0.01059 4.4463 1.3582 8.6102 3.9005 12.052-1.2173-2.6538-1.8424-5.5724-1.8438-8.6092 7.61e-4 -13.643 12.317-26.521 27.509-28.764 9.6882-1.4192 18.656 1.8439 23.608 8.5906-3.3769-7.3736-10.993-12.03-20.2-12.348" color="#000000" color-rendering="auto" image-rendering="auto" solid-color="#000000" style="isolation:auto;mix-blend-mode:normal"/>
    <path d="m-40.661 200.33c-1.7894-0.0616-3.6106 0.0433-5.4364 0.31329-15.112 2.2342-27.363 15.063-27.364 28.654 0.01053 4.4294 1.351 8.5775 3.88 12.006-1.2109-2.6437-1.8327-5.5512-1.8341-8.5765 7.57e-4 -13.591 12.252-26.42 27.364-28.654 9.6373-1.4138 18.558 1.8369 23.484 8.558-3.3592-7.3455-10.936-11.984-20.093-12.301" color="#000000" color-rendering="auto" image-rendering="auto" solid-color="#000000" style="isolation:auto;mix-blend-mode:normal"/>
    <path d="m-43.116 197.08c-1.78-0.0614-3.5916 0.0431-5.4077 0.31209-15.032 2.2257-27.219 15.005-27.219 28.545 0.01048 4.4125 1.3439 8.5447 3.8595 11.96-1.2045-2.6336-1.823-5.53-1.8244-8.5438 7.52e-4 -13.539 12.187-26.319 27.219-28.545 9.5863-1.4084 18.46 1.8299 23.36 8.5253-3.3414-7.3175-10.878-11.938-19.987-12.254" color="#000000" color-rendering="auto" image-rendering="auto" solid-color="#000000" style="isolation:auto;mix-blend-mode:normal"/>
    <path d="m-45.571 193.82c-1.7705-0.0612-3.5725 0.043-5.379 0.3109-14.953 2.2171-27.074 14.948-27.075 28.436 0.01042 4.3956 1.3368 8.512 3.839 11.915-1.1981-2.6236-1.8133-5.5088-1.8147-8.511 7.48e-4 -13.488 12.122-26.218 27.075-28.436 9.5354-1.403 18.361 1.8229 23.236 8.4926-3.3237-7.2894-10.82-11.892-19.881-12.207" color="#000000" color-rendering="auto" image-rendering="auto" solid-color="#000000" style="isolation:auto;mix-blend-mode:normal"/>
    <path d="m-48.025 190.57c-1.7611-0.0609-3.5534 0.0428-5.3503 0.3097-14.873 2.2086-26.93 14.89-26.93 28.326 0.01037 4.3787 1.3296 8.4792 3.8185 11.869-1.1917-2.6134-1.8036-5.4876-1.8051-8.4783 7.44e-4 -13.436 12.058-26.118 26.93-28.326 9.4845-1.3976 18.263 1.8159 23.112 8.46-3.3059-7.2614-10.762-11.847-19.775-12.16" color="#000000" color-rendering="auto" image-rendering="auto" solid-color="#000000" style="isolation:auto;mix-blend-mode:normal"/>
    <path d="m-50.48 187.31c-1.7516-0.0607-3.5343 0.0427-5.3216 0.30851-14.793 2.2001-26.785 14.833-26.786 28.217 0.01031 4.3618 1.3225 8.4465 3.798 11.823-1.1853-2.6034-1.7939-5.4664-1.7954-8.4456 7.4e-4 -13.384 11.993-26.017 26.786-28.217 9.4336-1.3922 18.165 1.8089 22.988 8.4273-3.2882-7.2334-10.705-11.801-19.669-12.113" color="#000000" color-rendering="auto" image-rendering="auto" solid-color="#000000" style="isolation:auto;mix-blend-mode:normal"/>
    <path d="m-52.934 184.06c-1.7421-0.0604-3.5153 0.0425-5.2928 0.30731-14.713 2.1915-26.64 14.775-26.641 28.107 0.01026 4.3449 1.3154 8.4138 3.7775 11.777-1.1789-2.5933-1.7843-5.4452-1.7857-8.4128 7.35e-4 -13.332 11.928-25.916 26.641-28.107 9.3827-1.3868 18.067 1.8019 22.864 8.3946-3.2704-7.2053-10.647-11.755-19.563-12.066" color="#000000" color-rendering="auto" image-rendering="auto" solid-color="#000000" style="isolation:auto;mix-blend-mode:normal"/>
    <path d="m-55.389 180.81c-1.7327-0.0602-3.4962 0.0423-5.2641 0.30611-14.633 2.183-26.496 14.718-26.497 27.998 0.0102 4.328 1.3082 8.381 3.757 11.731-1.1725-2.5832-1.7746-5.424-1.776-8.3801 7.32e-4 -13.28 11.863-25.815 26.497-27.998 9.3318-1.3814 17.969 1.7948 22.74 8.362-3.2527-7.1773-10.589-11.709-19.457-12.019" color="#000000" color-rendering="auto" image-rendering="auto" solid-color="#000000" style="isolation:auto;mix-blend-mode:normal"/>
    <path d="m-57.843 177.55c-1.7232-0.06-3.4771 0.0422-5.2354 0.30491-14.553 2.1745-26.351 14.66-26.352 27.889 0.01014 4.3111 1.3011 8.3483 3.7365 11.685-1.1661-2.5731-1.7649-5.4028-1.7663-8.3473 7.28e-4 -13.228 11.799-25.714 26.352-27.889 9.2809-1.376 17.871 1.7878 22.616 8.3293-3.2349-7.1492-10.531-11.664-19.35-11.972" color="#000000" color-rendering="auto" image-rendering="auto" solid-color="#000000" style="isolation:auto;mix-blend-mode:normal"/>
    <path d="m-60.298 174.3c-1.7138-0.0598-3.458 0.042-5.2067 0.30372-14.473 2.166-26.207 14.603-26.208 27.779 0.01009 4.2942 1.2939 8.3155 3.716 11.64-1.1597-2.563-1.7552-5.3816-1.7566-8.3146 7.24e-4 -13.176 11.734-25.613 26.208-27.779 9.23-1.3706 17.773 1.7808 22.491 8.2966-3.2172-7.1212-10.473-11.618-19.244-11.925" color="#000000" color-rendering="auto" image-rendering="auto" solid-color="#000000" style="isolation:auto;mix-blend-mode:normal"/>
    <path d="m-62.752 171.04c-1.7043-0.0595-3.439 0.0418-5.178 0.30252-14.394 2.1574-26.062 14.545-26.063 27.67 0.01003 4.2772 1.2868 8.2828 3.6956 11.594-1.1533-2.5529-1.7455-5.3605-1.7469-8.2818 7.19e-4 -13.124 11.669-25.512 26.063-27.67 9.179-1.3652 17.675 1.7738 22.367 8.2639-3.1995-7.0932-10.416-11.572-19.138-11.878" color="#000000" color-rendering="auto" image-rendering="auto" solid-color="#000000" style="isolation:auto;mix-blend-mode:normal"/>
    <path d="m-65.207 167.79c-1.6949-0.0593-3.4199 0.0417-5.1492 0.30133-14.314 2.1489-25.918 14.488-25.918 27.56 0.01 4.2603 1.2797 8.25 3.6751 11.548-1.1469-2.5428-1.7359-5.3393-1.7372-8.2491 7.15e-4 -13.073 11.605-25.412 25.918-27.56 9.1281-1.3598 17.577 1.7668 22.243 8.2313-3.1817-7.0651-10.358-11.526-19.032-11.831" color="#000000" color-rendering="auto" image-rendering="auto" solid-color="#000000" style="isolation:auto;mix-blend-mode:normal"/>
    <path d="m-67.662 164.54c-1.6854-0.059-3.4008 0.0415-5.1205 0.30013-14.234 2.1404-25.773 14.43-25.774 27.451 0.0099 4.2434 1.2725 8.2173 3.6546 11.502-1.1405-2.5327-1.7262-5.3181-1.7275-8.2164 7.11e-4 -13.021 11.54-25.311 25.774-27.451 9.0772-1.3544 17.479 1.7598 22.119 8.1986-3.164-7.0371-10.3-11.481-18.926-11.784" color="#000000" color-rendering="auto" image-rendering="auto" solid-color="#000000" style="isolation:auto;mix-blend-mode:normal"/>
    <path d="m-70.116 161.28c-1.676-0.0588-3.3817 0.0413-5.0918 0.29894-14.154 2.1318-25.629 14.373-25.629 27.342 0.01 4.2265 1.2654 8.1846 3.6341 11.456-1.1341-2.5226-1.7165-5.2969-1.7178-8.1836 7.07e-4 -12.969 11.475-25.21 25.629-27.342 9.0263-1.349 17.381 1.7528 21.995 8.1659-3.1462-7.009-10.242-11.435-18.82-11.738" color="#000000" color-rendering="auto" image-rendering="auto" solid-color="#000000" style="isolation:auto;mix-blend-mode:normal"/>
    <path d="m-72.571 158.03c-1.6665-0.0586-3.3627 0.0412-5.0631 0.29774-14.074 2.1233-25.484 14.315-25.485 27.232 0.01 4.2096 1.2583 8.1518 3.6136 11.41-1.1277-2.5125-1.7068-5.2757-1.7082-8.1509 7e-4 -12.917 11.41-25.109 25.485-27.232 8.9754-1.3436 17.283 1.7458 21.871 8.1333-3.1285-6.981-10.185-11.389-18.713-11.691" color="#000000" color-rendering="auto" image-rendering="auto" solid-color="#000000" style="isolation:auto;mix-blend-mode:normal"/>
    <path d="m-75.025 154.77c-1.6571-0.0583-3.3436 0.041-5.0344 0.29654-13.994 2.1148-25.339 14.258-25.34 27.123 0.01 4.1927 1.2511 8.1191 3.5931 11.365-1.1213-2.5024-1.6971-5.2545-1.6985-8.1182 7e-4 -12.865 11.346-25.008 25.34-27.123 8.9245-1.3382 17.185 1.7388 21.747 8.1006-3.1107-6.953-10.127-11.343-18.607-11.644" color="#000000" color-rendering="auto" image-rendering="auto" solid-color="#000000" style="isolation:auto;mix-blend-mode:normal"/>
    <path d="m-77.48 151.52c-1.6476-0.0581-3.3245 0.0408-5.0056 0.29534-13.915 2.1063-25.195 14.2-25.196 27.014 0.01 4.1758 1.244 8.0863 3.5726 11.319-1.1149-2.4924-1.6874-5.2333-1.6888-8.0854 7e-4 -12.813 11.281-24.907 25.196-27.014 8.8736-1.3328 17.087 1.7317 21.623 8.0679-3.093-6.9249-10.069-11.298-18.501-11.597" color="#000000" color-rendering="auto" image-rendering="auto" solid-color="#000000" style="isolation:auto;mix-blend-mode:normal"/>
    <path d="m-79.934 148.27c-1.6382-0.0579-3.3054 0.0407-4.9769 0.29415-13.835 2.0977-25.05 14.143-25.051 26.904 0.01 4.1589 1.2368 8.0536 3.5521 11.273-1.1086-2.4823-1.6778-5.2121-1.6791-8.0527 6.9e-4 -12.761 11.216-24.806 25.051-26.904 8.8227-1.3274 16.989 1.7247 21.499 8.0353-3.0752-6.8969-10.011-11.252-18.395-11.55" color="#000000" color-rendering="auto" image-rendering="auto" solid-color="#000000" style="isolation:auto;mix-blend-mode:normal"/>
    <path d="m-82.389 145.01c-1.6287-0.0576-3.2864 0.0405-4.9482 0.29295-13.755 2.0892-24.906 14.085-24.906 26.795 0.01 4.142 1.2297 8.0208 3.5316 11.227-1.1022-2.4722-1.6681-5.1909-1.6694-8.0199 6.8e-4 -12.709 11.151-24.706 24.906-26.795 8.7718-1.322 16.891 1.7177 21.375 8.0026-3.0575-6.8689-9.9535-11.206-18.289-11.503" color="#000000" color-rendering="auto" image-rendering="auto" solid-color="#000000" style="isolation:auto;mix-blend-mode:normal"/>
   </g>
  </g>
 </g>
</svg>
